<svg width="57" height="56" viewBox="0 0 57 56" fill="none" xmlns="http://www.w3.org/2000/svg">
<path d="M5.60351 0C2.50664 0 0 2.5029 0 5.60351V39.2021C0 42.299 2.50664 44.8019 5.60351 44.8019H19.5488L26.4635 55.1684C26.6341 55.4242 26.8652 55.634 27.1363 55.779C27.4074 55.9241 27.7101 56 28.0175 56C28.325 56 28.6277 55.9241 28.8988 55.779C29.1699 55.634 29.401 55.4242 29.5716 55.1684L36.4863 44.8019H50.4316C53.5284 44.8019 56.0351 42.299 56.0351 39.1984V5.60351C56.0351 2.5029 53.5284 0 50.4316 0H5.60351Z" fill="#F2E9C3"/>
</svg>
